<svg height="512pt" viewBox="0 0 512.00103 512" width="512pt" xmlns="http://www.w3.org/2000/svg"><path d="m256 512c-2.765625 0-5.527344-.761719-7.964844-2.289062l-241-151c-4.378906-2.742188-7.03906225-7.550782-7.035156-12.71875.00390625-5.167969 2.667969-9.972657 7.050781-12.710938l72-45c7.023438-4.390625 16.277344-2.253906 20.667969 4.769531 4.390625 7.023438 2.257812 16.277344-4.769531 20.667969l-51.671875 32.296875 212.722656 133.285156 212.582031-133.195312-52.453125-32.335938c-7.050781-4.347656-9.246094-13.589843-4.898437-20.640625 4.347656-7.050781 13.585937-9.246094 20.640625-4.898437l73 45c4.414062 2.722656 7.109375 7.53125 7.128906 12.714843.019531 5.183594-2.640625 10.011719-7.035156 12.765626l-241 151c-2.4375 1.527343-5.199219 2.289062-7.964844 2.289062zm0 0" fill="#ff0b69"/><path d="m256 421c-2.75 0-5.5-.753906-7.925781-2.265625l-241-150c-4.394531-2.734375-7.07031275-7.542969-7.074219-12.71875-.00390625-5.179687 2.660156-9.992187 7.050781-12.734375l72-45c7.023438-4.390625 16.277344-2.253906 20.667969 4.769531 4.390625 7.023438 2.257812 16.277344-4.769531 20.667969l-51.605469 32.253906 212.65625 132.359375 212.515625-132.269531-52.386719-32.292969c-7.050781-4.347656-9.246094-13.589843-4.898437-20.640625 4.347656-7.050781 13.585937-9.246094 20.640625-4.898437l73 45c4.421875 2.726562 7.117187 7.542969 7.128906 12.738281.011719 5.191406-2.664062 10.023438-7.074219 12.765625l-241 150c-2.425781 1.511719-5.175781 2.265625-7.925781 2.265625zm0 0" fill="#7986e8"/><path d="m256 331c-2.75 0-5.5-.753906-7.925781-2.265625l-241-150c-4.394531-2.734375-7.0664065-7.539063-7.074219-12.710937-.0078125-5.175782 2.652344-9.988282 7.035156-12.734376l241-151c4.871094-3.050781 11.058594-3.050781 15.929688 0l241 151c4.382812 2.746094 7.042968 7.558594 7.035156 12.734376-.007812 5.175781-2.679688 9.980468-7.074219 12.710937l-241 150c-2.425781 1.511719-5.175781 2.265625-7.925781 2.265625zm-212.679688-165.042969 212.679688 132.375 212.679688-132.375-212.679688-133.253906zm0 0" fill="#fedb41"/></svg>